<svg xmlns="http://www.w3.org/2000/svg" viewBox="0 0 64 64">
<path fill="#25D366" d="M32 2C15.4 2 2 15.3 2 31.7c0 5.8 1.7 11.2 4.6 15.8L2 62l14.8-4.5c4.4 2.4 9.4 3.7 14.7 3.7C48.6 61.2 62 47.9 62 31.6 62 15.3 48.6 2 32 2z"/>
<path fill="#fff" d="M46.9 37.4c-.6-.3-3.6-1.8-4.2-2-0.6-.2-1-.3-1.4.3-.4.6-1.6 2-2 2.4-.4.4-.7.5-1.3.2-.6-.3-2.6-1-5-3.1-1.8-1.6-3-3.5-3.3-4.1-.3-.6 0-.9.2-1.1.2-.2.6-.7.9-1 .3-.4.4-.7.6-1.1.2-.4.1-.8 0-1.1-.1-.3-1.4-3.3-1.9-4.5-.5-1.1-1-.9-1.4-.9h-1.2c-.4 0-1.1.2-1.7.8-.6.6-2.2 2.1-2.2 5.2 0 3.1 2.3 6.1 2.6 6.5.3.4 4.5 6.9 10.9 9.6 1.5.7 2.7 1.1 3.6 1.4 1.5.5 2.9.4 4 .2 1.2-.2 3.6-1.5 4.1-3 .5-1.5.5-2.7.4-3-.1-.3-.5-.5-1.1-.8z"/>
</svg>